# xmcd
# 
# Track frame offsets:
#     150
#     38586
#     67802
#     99979
#     130135
#     161614
#     196108
#     223918
#     251476
#     288825
# 
# Disc length: 4293
# 
# Revision: 9
# Processed by: cddbd v1.5.2PL0 Copyright (c) Steve Scherf et al.
# Submitted via: fre:ac v1.0.17
# 
DISCID=8310c30a
DTITLE=Infected Mushroom - IM The Supervisor
DYEAR=2004
DGENRE=Trance
TTITLE0=IM The Supervisor
TTITLE1=Ratio Shmatio
TTITLE2=Muse Breaks RMX
TTITLE3=Meduzz
TTITLE4=Cities Of The Future
TTITLE5=Horus The Chorus
TTITLE6=Frog Machine
TTITLE7=Noon
TTITLE8=Bombat
TTITLE9=Stretched
EXTD=
EXTT0=
EXTT1=
EXTT2=
EXTT3=
EXTT4=
EXTT5=
EXTT6=
EXTT7=
EXTT8=
EXTT9=
PLAYORDER=
